<?xml version="1.0"?>
<svg xmlns="http://www.w3.org/2000/svg" id="Capa_1" enable-background="new 0 0 511.999 511.999" height="512px" viewBox="0 0 511.999 511.999" width="512px"><g><g fill="#050402"><path d="m320.142 214.176c0-17.252 0-154.704 0-170.898 0-6.535-5.316-11.852-11.852-11.852h-208.118c-6.535 0-11.852 5.316-11.852 11.852v170.898c0 6.535 5.316 11.852 11.852 11.852h208.118c6.536-.001 11.852-5.317 11.852-11.852zm-216.821-167.75h201.821v101.751c-28.26 0-173.631 0-201.821 0zm78.822 133.176h-16.273v-16.425h16.273zm-78.822-16.425h16.274v16.425h-16.274zm31.274 0h16.274v16.425h-16.274zm-31.274 31.425h16.274v16.426h-16.274zm31.274 0h16.274v16.426h-16.274zm31.275 16.425v-16.426h16.273v16.426zm139.272 0h-107.999c0-15.223 0-32.627 0-47.851h107.999z" data-original="#050402" class="active-path" data-old_color="#050402" fill="#3D3D3D"/><path d="m219.672 194.602h59.01c4.143 0 7.5-3.357 7.5-7.5s-3.357-7.5-7.5-7.5h-59.01c-4.143 0-7.5 3.357-7.5 7.5s3.358 7.5 7.5 7.5z" data-original="#050402" class="active-path" data-old_color="#050402" fill="#3D3D3D"/><path d="m279.658 136.461c6.844 0 12.412-5.568 12.412-12.412v-53.495c0-6.845-5.568-12.413-12.412-12.413h-150.852c-6.845 0-12.413 5.568-12.413 12.413v53.495c0 6.844 5.568 12.412 12.413 12.412zm-148.265-63.32h145.677v48.32h-145.677z" data-original="#050402" class="active-path" data-old_color="#050402" fill="#3D3D3D"/><path d="m195.351 269.218-33.891 45.441c-26.235 35.175-1.101 85.256 42.771 85.256 43.881 0 69-50.09 42.771-85.255l-33.892-45.445c-4.396-5.891-13.304-5.969-17.759.003zm8.881 115.697c-31.502 0-49.707-35.865-30.748-61.288l30.747-41.227 30.748 41.227v.001c18.833 25.251.969 61.287-30.747 61.287z" data-original="#050402" class="active-path" data-old_color="#050402" fill="#3D3D3D"/><path d="m415.829 458.077c23.629 0 42.852-19.224 42.852-42.852v-204.484c9.847-1.653 17.381-10.214 17.381-20.523v-101.813c0-11.488-9.346-20.834-20.834-20.834h-.624l-15.231-18.44c-11.268-13.643-17.479-25.375-37.141-30.979-3.977-1.131-8.133 1.174-9.269 5.157s1.174 8.133 5.157 9.269c14.499 4.133 18.273 12.282 29.687 26.106l9.353 11.324c-6.584 3.505-11.08 10.432-11.08 18.397v7.658h-21.663c-12.232 0-22.184 9.951-22.184 22.184v58.326c0 12.232 9.951 22.184 22.184 22.184h23.514c2.842 6.293 8.714 10.914 15.75 12.018v204.451c0 15.357-12.494 27.852-27.852 27.852s-27.853-12.494-27.853-27.852v-4.714c0-21.438-15.825-39.249-36.408-42.366v-53.246c0-4.143-3.357-7.5-7.5-7.5s-7.5 3.357-7.5 7.5v147.531h-264.673v-442.361c0-2.748 2.322-5.07 5.07-5.07h254.532c2.748 0 5.07 2.322 5.07 5.07v259.83c0 4.143 3.357 7.5 7.5 7.5s7.5-3.357 7.5-7.5v-259.83c0-11.066-9.004-20.07-20.07-20.07h-254.532c-11.066 0-20.07 9.004-20.07 20.07v442.361h-4.814c-8.901 0-16.143 7.241-16.143 16.143v17.283c0 8.9 7.241 16.142 16.143 16.142h134.651c4.143 0 7.5-3.357 7.5-7.5s-3.357-7.5-7.5-7.5h-134.651c-.63 0-1.143-.512-1.143-1.142v-17.283c0-.63.513-1.143 1.143-1.143h12.314 279.673 12.315c.63 0 1.142.513 1.142 1.143v17.283c0 .63-.512 1.142-1.142 1.142h-134.651c-4.143 0-7.5 3.357-7.5 7.5s3.357 7.5 7.5 7.5h134.651c8.9 0 16.142-7.241 16.142-16.142v-17.283c0-8.901-7.241-16.143-16.142-16.143h-4.815v-79.011c12.26 2.916 21.408 13.952 21.408 27.091v4.714c0 23.629 19.224 42.852 42.853 42.852zm-18.596-339.83c0-3.961 3.223-7.184 7.184-7.184h21.663v11.57h-21.663c-2.513 0-4.93.42-7.184 1.193zm0 58.326v-31.756c0-3.961 3.223-7.184 7.184-7.184h21.663v16.548l-3.236-2.02c-3.513-2.193-8.14-1.121-10.333 2.392-2.193 3.515-1.122 8.141 2.392 10.333l11.178 6.975v11.895h-21.663c-3.962.001-7.185-3.222-7.185-7.183zm43.881 14.266c-.003-.058 0-.116-.005-.175-.012-.148-.028-.296-.029-.446 0-33.978 0-67.863 0-101.813 0-3.217 2.617-5.834 5.834-5.834h8.313c3.217 0 5.834 2.617 5.834 5.834v101.813c0 3.217-2.617 5.834-5.834 5.834h-8.313c-3.007 0-5.489-2.288-5.8-5.213z" data-original="#050402" class="active-path" data-old_color="#050402" fill="#3D3D3D"/></g></g> </svg>
